<svg xmlns="http://www.w3.org/2000/svg" version="1.1" xmlns:xlink="http://www.w3.org/1999/xlink" xmlns:svgjs="http://svgjs.com/svgjs" width="1440" height="560" preserveAspectRatio="none" viewBox="0 0 1440 560"><g mask="url(&quot;#SvgjsMask1830&quot;)" fill="none"><rect width="1440" height="560" x="0" y="0" fill="url(#SvgjsLinearGradient1831)"></rect><path d="M1512 560L0 560 L0 227.75Q43.12 150.87, 120 193.98Q165.82 119.8, 240 165.61Q329.2 134.81, 360 224.01Q412.83 156.84, 480 209.68Q530.81 188.49, 552 239.3Q562.2 177.5, 624 187.7Q648.3 140, 696 164.29Q751.61 147.9, 768 203.51Q845.9 161.41, 888 239.31Q918.29 149.6, 1008 179.89Q1076.49 128.38, 1128 196.88Q1197.03 145.91, 1248 214.93Q1284.53 131.46, 1368 167.99Q1411.79 139.78, 1440 183.56Q1509.01 180.57, 1512 249.58z" fill="rgba(4, 7, 16, 1)"></path><path d="M1464 560L0 560 L0 283.54Q43.18 254.72, 72 297.9Q113.6 219.5, 192 261.09Q237.14 234.23, 264 279.36Q340.32 235.69, 384 312.01Q398.25 254.26, 456 268.52Q506.42 198.94, 576 249.35Q668.95 222.3, 696 315.24Q713.34 212.58, 816 229.92Q884.41 178.33, 936 246.75Q995.15 233.9, 1008 293.06Q1077.26 242.32, 1128 311.59Q1139.62 251.2, 1200 262.82Q1246.26 189.07, 1320 235.33Q1379.2 222.53, 1392 281.73Q1416.5 234.23, 1464 258.73z" fill="rgba(16, 31, 73, 1)"></path><path d="M1512 560L0 560 L0 356.1Q71.15 307.25, 120 378.41Q137.77 324.19, 192 341.96Q218.46 296.42, 264 322.89Q293.6 280.49, 336 310.08Q388.46 290.54, 408 343Q461.32 276.32, 528 329.64Q576.11 305.75, 600 353.86Q644.57 326.43, 672 370.99Q685.15 312.14, 744 325.29Q786.82 296.11, 816 338.92Q860.43 311.36, 888 355.79Q926.08 273.87, 1008 311.94Q1050.15 282.09, 1080 324.24Q1154.99 279.24, 1200 354.23Q1209.8 292.03, 1272 301.83Q1337.6 247.43, 1392 313.03Q1459.95 260.98, 1512 328.93z" fill="rgba(34, 65, 152, 1)"></path><path d="M1512 560L0 560 L0 393.52Q72.23 345.75, 120 417.97Q150.87 328.84, 240 359.71Q314.86 314.56, 360 389.42Q431.2 340.62, 480 411.82Q521.72 333.54, 600 375.27Q669.13 324.4, 720 393.53Q765.02 318.55, 840 363.58Q899.93 351.51, 912 411.44Q933.47 360.91, 984 382.38Q1052.88 331.26, 1104 400.15Q1152.13 376.28, 1176 424.42Q1186.06 362.48, 1248 372.54Q1315.79 320.33, 1368 388.11Q1433.23 381.34, 1440 446.57Q1470.33 404.9, 1512 435.23z" fill="rgba(46, 88, 206, 1)"></path><path d="M1536 560L0 560 L0 465.27Q60.73 406, 120 466.73Q149.33 424.06, 192 453.4Q267.13 408.53, 312 483.66Q379.02 430.68, 432 497.7Q462.68 408.38, 552 439.05Q593.36 408.4, 624 449.76Q666.15 419.91, 696 462.06Q767.28 413.35, 816 484.63Q857.32 405.95, 936 447.27Q985.4 376.67, 1056 426.08Q1120.25 418.33, 1128 482.58Q1157.25 439.83, 1200 469.08Q1219.94 417.02, 1272 436.97Q1313.69 406.66, 1344 448.35Q1398.03 430.38, 1416 484.4Q1464.4 412.8, 1536 461.2z" fill="rgba(161, 180, 234, 1)"></path><path d="M1464 560L0 560 L0 568.97Q1.23 498.2, 72 499.43Q137.53 444.96, 192 510.48Q275.71 474.19, 312 557.91Q382.25 508.15, 432 578.4Q447.01 521.41, 504 536.43Q549.92 510.35, 576 556.26Q617.22 477.48, 696 518.69Q726.92 477.62, 768 508.54Q840.83 461.37, 888 534.19Q918.88 493.08, 960 523.96Q1044.71 488.67, 1080 573.38Q1082.11 503.49, 1152 505.59Q1199.66 481.25, 1224 528.91Q1300.89 485.8, 1344 562.69Q1392.92 491.62, 1464 540.54z" fill="rgba(161, 180, 234, 1)"></path></g><defs><mask id="SvgjsMask1830"><rect width="1440" height="560" fill="#ffffff"></rect></mask><linearGradient x1="50%" y1="100%" x2="50%" y2="0%" gradientUnits="userSpaceOnUse" id="SvgjsLinearGradient1831"><stop stop-color="rgba(161, 180, 234, 1)" offset="0.33"></stop><stop stop-color="rgba(0, 0, 0, 1)" offset="0.88"></stop></linearGradient></defs></svg>