<svg width="515.8" height="132.402" viewBox="0 0 515.8 132.402" xmlns="http://www.w3.org/2000/svg"><g id="svgGroup" stroke-linecap="round" fill-rule="evenodd" font-size="9pt" stroke="#000" stroke-width="0.5mm" fill="#000" style="stroke:#000;stroke-width:0.5mm;fill:#000"><path d="M 62.8 132.402 L 0 132.402 L 0 0.002 L 59.4 0.002 A 73.28 73.28 0 0 1 68.938 0.583 Q 73.745 1.216 77.723 2.536 A 32.532 32.532 0 0 1 84.1 5.402 A 38.058 38.058 0 0 1 91.3 10.85 A 29.386 29.386 0 0 1 97.2 18.902 A 39.519 39.519 0 0 1 100.407 27.857 A 32.963 32.963 0 0 1 101.2 35.002 Q 101.2 43.539 98.798 49.452 A 21.734 21.734 0 0 1 95.8 54.702 A 37.019 37.019 0 0 1 89.611 60.989 A 30.397 30.397 0 0 1 83.4 64.802 A 39.83 39.83 0 0 1 90.085 67.68 A 50.985 50.985 0 0 1 94.7 70.502 A 30.548 30.548 0 0 1 102.643 78.527 A 36.805 36.805 0 0 1 104.2 81.002 Q 108 87.602 108 97.602 A 31.574 31.574 0 0 1 98.089 121.113 A 39.771 39.771 0 0 1 96.7 122.402 A 35.43 35.43 0 0 1 84.65 129.238 Q 79.367 131.067 72.89 131.839 A 85.425 85.425 0 0 1 62.8 132.402 Z M 15 72.802 L 15 118.202 L 64.4 118.202 Q 78 118.202 85.5 112.502 A 18.492 18.492 0 0 0 92.883 98.928 A 26.563 26.563 0 0 0 93 96.402 A 22.21 22.21 0 0 0 86.724 80.855 A 29.534 29.534 0 0 0 85.8 79.902 Q 78.6 72.802 62.8 72.802 L 15 72.802 Z M 15 14.202 L 15 59.202 L 59.4 59.202 A 36.095 36.095 0 0 0 70.175 57.619 A 33.553 33.553 0 0 0 72.5 56.802 Q 78.6 54.402 82.4 49.302 A 18.452 18.452 0 0 0 85.524 42.436 Q 86.147 39.8 86.196 36.726 A 33.087 33.087 0 0 0 86.2 36.202 Q 86.2 30.602 83.7 25.602 Q 81.2 20.602 75.7 17.402 Q 70.2 14.202 61 14.202 L 15 14.202 Z" id="0" vector-effect="non-scaling-stroke"/><path d="M 229.8 132.402 L 132.4 132.402 L 132.4 0.002 L 229.8 0.002 L 229.8 14.402 L 147.4 14.402 L 147.4 58.802 L 221 58.802 L 221 73.402 L 147.4 73.402 L 147.4 118.002 L 229.8 118.002 L 229.8 132.402 Z" id="1" vector-effect="non-scaling-stroke"/><path d="M 269 132.402 L 254 132.402 L 254 0.002 L 317.4 0.002 A 60.314 60.314 0 0 1 330.991 1.448 A 40.774 40.774 0 0 1 349.9 11.202 A 37.054 37.054 0 0 1 361.462 33.733 A 52.685 52.685 0 0 1 362 41.402 Q 362 50.713 359.407 57.273 A 25.906 25.906 0 0 1 357.1 61.802 Q 352.2 69.402 344.8 73.302 A 67.321 67.321 0 0 1 334.625 77.672 A 58.777 58.777 0 0 1 330 79.002 L 364.8 132.402 L 347 132.402 L 315 81.602 L 269 81.602 L 269 132.402 Z M 269 14.202 L 269 67.402 L 314.8 67.402 Q 322 67.402 329.4 65.202 Q 336.8 63.002 341.9 57.302 Q 346.412 52.259 346.932 43.693 A 37.819 37.819 0 0 0 347 41.402 A 29.713 29.713 0 0 0 345.74 32.532 A 23.301 23.301 0 0 0 338.4 21.502 Q 329.8 14.202 315.6 14.202 L 269 14.202 Z" id="2" vector-effect="non-scaling-stroke"/><path d="M 435.6 132.402 L 420.6 132.402 L 420.6 14.202 L 374.4 14.202 L 374.4 0.002 L 481.8 0.002 L 481.8 14.202 L 435.6 14.202 L 435.6 132.402 Z" id="3" vector-effect="non-scaling-stroke"/><path d="M 515.8 132.402 L 500.8 132.402 L 500.8 0.002 L 515.8 0.002 L 515.8 132.402 Z" id="4" vector-effect="non-scaling-stroke"/></g></svg>