<svg xmlns="http://www.w3.org/2000/svg" version="1.1" xmlns:xlink="http://www.w3.org/1999/xlink" xmlns:svgjs="http://svgjs.com/svgjs" width="1440" height="800" preserveAspectRatio="none" viewBox="0 0 1440 800"><g mask="url(&quot;#SvgjsMask1000&quot;)" fill="none"><rect width="1440" height="800" x="0" y="0" fill="rgba(0, 0, 0, 1)"></rect><path d="M86 800L886 0L1259.5 0L459.5 800z" fill="url(#SvgjsLinearGradient1001)"></path><path d="M534.2 800L1334.2 0L1442.2 0L642.2 800z" fill="url(#SvgjsLinearGradient1001)"></path><path d="M1419 800L619 0L26.5 0L826.5 800z" fill="url(#SvgjsLinearGradient1002)"></path><path d="M890.8 800L90.79999999999995 0L-474.70000000000005 0L325.29999999999995 800z" fill="url(#SvgjsLinearGradient1002)"></path><path d="M1005.1268920082184 800L1440 365.1268920082185L1440 800z" fill="url(#SvgjsLinearGradient1001)"></path><path d="M0 800L434.8731079917815 800L 0 365.1268920082185z" fill="url(#SvgjsLinearGradient1002)"></path></g><defs><mask id="SvgjsMask1000"><rect width="1440" height="800" fill="#ffffff"></rect></mask><linearGradient x1="0%" y1="100%" x2="100%" y2="0%" id="SvgjsLinearGradient1001"><stop stop-color="rgba(0, 206, 121, 0.35)" offset="0"></stop><stop stop-opacity="0" stop-color="rgba(0, 206, 121, 0.35)" offset="0.66"></stop></linearGradient><linearGradient x1="100%" y1="100%" x2="0%" y2="0%" id="SvgjsLinearGradient1002"><stop stop-color="rgba(0, 206, 121, 0.35)" offset="0"></stop><stop stop-opacity="0" stop-color="rgba(0, 206, 121, 0.35)" offset="0.66"></stop></linearGradient></defs></svg>