<svg xmlns="http://www.w3.org/2000/svg" version="1.1" xmlns:xlink="http://www.w3.org/1999/xlink" xmlns:svgjs="http://svgjs.com/svgjs" width="1440" height="560" preserveAspectRatio="none" viewBox="0 0 1440 560"><g mask="url(&quot;#SvgjsMask1139&quot;)" fill="none"><path d="M -197.53830577435315,6 C -176.94,70 -135.74,280 -94.53830577435313,326 C -53.34,372 -32.74,191.6 8.461694225646866,236 C 49.66,280.4 70.26,571.2 111.46169422564687,548 C 152.66,524.8 173.26,132.6 214.46169422564685,120 C 255.66,107.4 276.26,463.4 317.46169422564685,485 C 358.66,506.6 379.26,231.8 420.46169422564685,228 C 461.66,224.2 482.26,497.2 523.4616942256469,466 C 564.66,434.8 585.26,106.2 626.4616942256469,72 C 667.66,37.8 688.26,257.2 729.4616942256469,295 C 770.66,332.8 791.26,239.8 832.4616942256469,261 C 873.66,282.2 894.26,413.4 935.4616942256469,401 C 976.66,388.6 997.26,220.4 1038.4616942256469,199 C 1079.66,177.6 1100.26,332.8 1141.4616942256469,294 C 1182.66,255.2 1203.26,5.6 1244.4616942256469,5 C 1285.66,4.4 1308.35,250.2 1347.4616942256469,291 C 1386.57,331.8 1421.49,225.4 1440,209" stroke="rgba(0, 85, 50, 0.48)" stroke-width="2"></path><path d="M -75.96196810995086,185 C -55.36,213 -14.16,325 27.03803189004914,325 C 68.24,325 88.84,182.4 130.03803189004913,185 C 171.24,187.6 191.84,347.2 233.03803189004913,338 C 274.24,328.8 294.84,135.8 336.0380318900491,139 C 377.24,142.2 397.84,340.8 439.0380318900491,354 C 480.24,367.2 500.84,185.2 542.0380318900492,205 C 583.24,224.8 603.84,492.2 645.0380318900492,453 C 686.24,413.8 706.84,3.8 748.0380318900492,9 C 789.24,14.2 809.84,435.4 851.0380318900492,479 C 892.24,522.6 912.84,231.6 954.0380318900492,227 C 995.24,222.4 1015.84,493.2 1057.038031890049,456 C 1098.24,418.8 1118.84,25.4 1160.038031890049,41 C 1201.24,56.6 1221.84,488 1263.038031890049,534 C 1304.24,580 1324.84,275.8 1366.038031890049,271 C 1407.24,266.2 1454.25,515.6 1469.038031890049,510 C 1483.83,504.4 1445.81,296.4 1440,243" stroke="rgba(0, 85, 50, 0.48)" stroke-width="2"></path><path d="M -31.111018140026275,430 C -10.51,358 30.69,96.8 71.88898185997373,70 C 113.09,43.2 133.69,285.2 174.88898185997374,296 C 216.09,306.8 236.69,125.6 277.88898185997374,124 C 319.09,122.4 339.69,263.4 380.88898185997374,288 C 422.09,312.6 442.69,196 483.88898185997374,247 C 525.09,298 545.69,581.2 586.8889818599737,543 C 628.09,504.8 648.69,60.2 689.8889818599737,56 C 731.09,51.8 751.69,502.4 792.8889818599737,522 C 834.09,541.6 854.69,163 895.8889818599737,154 C 937.09,145 957.69,454.4 998.8889818599737,477 C 1040.09,499.6 1060.69,297 1101.8889818599737,267 C 1143.09,237 1163.69,330.8 1204.8889818599737,327 C 1246.09,323.2 1266.69,244.8 1307.8889818599737,248 C 1349.09,251.2 1369.69,351.8 1410.8889818599737,343 C 1452.09,334.2 1508.07,168.4 1513.8889818599737,204 C 1519.71,239.6 1454.78,457.6 1440,521" stroke="rgba(0, 85, 50, 0.48)" stroke-width="2"></path><path d="M -178.6137202062289,225 C -158.01,266.4 -116.81,444.6 -75.61372020622888,432 C -34.41,419.4 -13.81,178.2 27.386279793771124,162 C 68.59,145.8 89.19,349.4 130.3862797937711,351 C 171.59,352.6 192.19,179.6 233.3862797937711,170 C 274.59,160.4 295.19,316.8 336.3862797937711,303 C 377.59,289.2 398.19,103 439.3862797937711,101 C 480.59,99 501.19,273.4 542.3862797937711,293 C 583.59,312.6 604.19,184.6 645.3862797937711,199 C 686.59,213.4 707.19,362.6 748.3862797937711,365 C 789.59,367.4 810.19,211.2 851.3862797937711,211 C 892.59,210.8 913.19,360.2 954.3862797937711,364 C 995.59,367.8 1016.19,202.8 1057.386279793771,230 C 1098.59,257.2 1119.19,505 1160.386279793771,500 C 1201.59,495 1222.19,235.8 1263.386279793771,205 C 1304.59,174.2 1331.06,336.4 1366.386279793771,346 C 1401.71,355.6 1425.28,271.6 1440,253" stroke="rgba(0, 85, 50, 0.48)" stroke-width="2"></path><path d="M -17.18319341366636,170 C 3.42,207 44.62,350.2 85.81680658633364,355 C 127.02,359.8 147.62,193.4 188.81680658633366,194 C 230.02,194.6 250.62,357.2 291.81680658633366,358 C 333.02,358.8 353.62,211 394.81680658633366,198 C 436.02,185 456.62,290 497.81680658633366,293 C 539.02,296 559.62,195.4 600.8168065863337,213 C 642.02,230.6 662.62,380.4 703.8168065863337,381 C 745.02,381.6 765.62,235 806.8168065863337,216 C 848.02,197 868.62,291.4 909.8168065863337,286 C 951.02,280.6 971.62,154.6 1012.8168065863337,189 C 1054.02,223.4 1074.62,493.4 1115.8168065863335,458 C 1157.02,422.6 1177.62,24.4 1218.8168065863335,12 C 1260.02,-0.4 1280.62,397.4 1321.8168065863335,396 C 1363.02,394.6 1383.62,11.2 1424.8168065863335,5 C 1466.02,-1.2 1524.78,345.6 1527.8168065863335,365 C 1530.85,384.4 1457.56,154.6 1440,102" stroke="rgba(0, 85, 50, 0.48)" stroke-width="2"></path><path d="M -15.630927120990151,197 C 4.97,254 46.17,481.8 87.36907287900985,482 C 128.57,482.2 149.17,192.8 190.36907287900985,198 C 231.57,203.2 252.17,492.2 293.3690728790099,508 C 334.57,523.8 355.17,277.4 396.3690728790099,277 C 437.57,276.6 458.17,508.2 499.3690728790099,506 C 540.57,503.8 561.17,276 602.3690728790099,266 C 643.57,256 664.17,466.6 705.3690728790099,456 C 746.57,445.4 767.17,217 808.3690728790099,213 C 849.57,209 870.17,450.6 911.3690728790099,436 C 952.57,421.4 973.17,169.8 1014.3690728790099,140 C 1055.57,110.2 1076.17,291.8 1117.3690728790098,287 C 1158.57,282.2 1179.17,110.2 1220.3690728790098,116 C 1261.57,121.8 1282.17,326.4 1323.3690728790098,316 C 1364.57,305.6 1385.17,67 1426.3690728790098,64 C 1467.57,61 1526.64,266 1529.3690728790098,301 C 1532.1,336 1457.87,251.4 1440,239" stroke="rgba(0, 85, 50, 0.48)" stroke-width="2"></path><path d="M -181.9411721249172,7 C -161.34,88.8 -120.14,390.6 -78.94117212491719,416 C -37.74,441.4 -17.14,120.4 24.058827875082812,134 C 65.26,147.6 85.86,503.4 127.05882787508281,484 C 168.26,464.6 188.86,42.4 230.0588278750828,37 C 271.26,31.6 291.86,418 333.0588278750828,457 C 374.26,496 394.86,252.6 436.0588278750828,232 C 477.26,211.4 497.86,383.6 539.0588278750828,354 C 580.26,324.4 600.86,87 642.0588278750828,84 C 683.26,81 703.86,337.4 745.0588278750828,339 C 786.26,340.6 806.86,79.6 848.0588278750828,92 C 889.26,104.4 909.86,406 951.0588278750828,401 C 992.26,396 1012.86,36.6 1054.058827875083,67 C 1095.26,97.4 1115.86,532.6 1157.058827875083,553 C 1198.26,573.4 1218.86,195.4 1260.058827875083,169 C 1301.26,142.6 1327.07,419.8 1363.058827875083,421 C 1399.05,422.2 1424.61,224.2 1440,175" stroke="rgba(0, 85, 50, 0.48)" stroke-width="2"></path><path d="M -35.64116196764472,144 C -15.04,225 26.16,522.4 67.35883803235528,549 C 108.56,575.6 129.16,283 170.35883803235527,277 C 211.56,271 232.16,548 273.35883803235527,519 C 314.56,490 335.16,146.6 376.35883803235527,132 C 417.56,117.4 438.16,433.6 479.35883803235527,446 C 520.56,458.4 541.16,182.6 582.3588380323553,194 C 623.56,205.4 644.16,506.4 685.3588380323553,503 C 726.56,499.6 747.16,199.4 788.3588380323553,177 C 829.56,154.6 850.16,410.6 891.3588380323553,391 C 932.56,371.4 953.16,64.4 994.3588380323553,79 C 1035.56,93.6 1056.16,455 1097.3588380323554,464 C 1138.56,473 1159.16,107.4 1200.3588380323554,124 C 1241.56,140.6 1262.16,547.2 1303.3588380323554,547 C 1344.56,546.8 1365.16,144.8 1406.3588380323554,123 C 1447.56,101.2 1502.63,440.8 1509.3588380323554,438 C 1516.09,435.2 1453.87,174.8 1440,109" stroke="rgba(0, 85, 50, 0.48)" stroke-width="2"></path><path d="M -73.59718816126409,502 C -53,421.4 -11.8,88.2 29.40281183873592,99 C 70.6,109.8 91.2,556.8 132.40281183873591,556 C 173.6,555.2 194.2,130.2 235.40281183873591,95 C 276.6,59.8 297.2,364 338.40281183873594,380 C 379.6,396 400.2,148 441.40281183873594,175 C 482.6,202 503.2,506.4 544.4028118387359,515 C 585.6,523.6 606.2,248 647.4028118387359,218 C 688.6,188 709.2,374 750.4028118387359,365 C 791.6,356 812.2,179.8 853.4028118387359,173 C 894.6,166.2 915.2,357.4 956.4028118387359,331 C 997.6,304.6 1018.2,-3.2 1059.402811838736,41 C 1100.6,85.2 1121.2,512.8 1162.402811838736,552 C 1203.6,591.2 1224.2,275.6 1265.402811838736,237 C 1306.6,198.4 1327.2,394.4 1368.402811838736,359 C 1409.6,323.6 1457.08,53.8 1471.402811838736,60 C 1485.72,66.2 1446.28,324 1440,390" stroke="rgba(0, 85, 50, 0.48)" stroke-width="2"></path><path d="M -171.23813451168746,472 C -150.64,421.6 -109.44,205.6 -68.23813451168748,220 C -27.04,234.4 -6.44,586.6 34.76186548831252,544 C 75.96,501.4 96.56,27.6 137.76186548831254,7 C 178.96,-13.6 199.56,407.8 240.76186548831254,441 C 281.96,474.2 302.56,160.4 343.76186548831254,173 C 384.96,185.6 405.56,522.8 446.76186548831254,504 C 487.96,485.2 508.56,96.6 549.7618654883125,79 C 590.96,61.4 611.56,398 652.7618654883125,416 C 693.96,434 714.56,174.2 755.7618654883125,169 C 796.96,163.8 817.56,416.8 858.7618654883125,390 C 899.96,363.2 920.56,11.6 961.7618654883125,35 C 1002.96,58.4 1023.56,489.6 1064.7618654883124,507 C 1105.96,524.4 1126.56,156.2 1167.7618654883124,122 C 1208.96,87.8 1229.56,329.6 1270.7618654883124,336 C 1311.96,342.4 1339.91,124.4 1373.7618654883124,154 C 1407.61,183.6 1426.75,418 1440,484" stroke="rgba(0, 85, 50, 0.48)" stroke-width="2"></path></g><defs><mask id="SvgjsMask1139"><rect width="1440" height="560" fill="#ffffff"></rect></mask></defs></svg>